STARTFONT 2.1
FONT -B&H-Lucida Sans Typewriter-Medium-R-Normal-Sans-12-120-72-72-M-70-koi8-r
SIZE 12 72 72
FONTBOUNDINGBOX 8 12 0 -2
STARTPROPERTIES 23
FONTNAME_REGISTRY "-"
FOUNDRY "B&H"
FAMILY_NAME "Lucida Sans Typewriter"
WEIGHT_NAME "Medium"
SLANT "R"
SETWIDTH_NAME "Normal"
ADD_STYLE_NAME "Sans"
PIXEL_SIZE 12
POINT_SIZE 120
RESOLUTION_X 72
RESOLUTION_Y 72
SPACING "M"
CHARSET_REGISTRY "koi8"
CHARSET_ENCODING "r"
FULL_NAME "LucidaSans-Typewriter"
AVERAGE_WIDTH 70
WEIGHT 10
RESOLUTION 99
X_HEIGHT 7
QUAD_WIDTH 7
FONT_ASCENT 11
FONT_DESCENT 2
_XMBDFED_INFO "Edited with xmbdfed 2.0."
ENDPROPERTIES
CHARS 205
STARTCHAR char73
ENCODING 11
SWIDTH 666 0
DWIDTH 8 0
BBX 4 6 0 4
BITMAP
10
10
10
10
10
F0
ENDCHAR
STARTCHAR char73
ENCODING 12
SWIDTH 666 0
DWIDTH 8 0
BBX 4 7 0 -2
BITMAP
F0
10
10
10
10
10
10
ENDCHAR
STARTCHAR char73
ENCODING 13
SWIDTH 666 0
DWIDTH 8 0
BBX 5 7 3 -2
BITMAP
F8
80
80
80
80
80
80
ENDCHAR
STARTCHAR char73
ENCODING 14
SWIDTH 666 0
DWIDTH 8 0
BBX 5 6 3 4
BITMAP
80
80
80
80
80
F8
ENDCHAR
STARTCHAR char73
ENCODING 15
SWIDTH 666 0
DWIDTH 8 0
BBX 8 12 0 -2
BITMAP
10
10
10
10
10
FF
10
10
10
10
10
10
ENDCHAR
STARTCHAR char73
ENCODING 16
SWIDTH 666 0
DWIDTH 8 0
BBX 8 1 0 9
BITMAP
FF
ENDCHAR
STARTCHAR char73
ENCODING 17
SWIDTH 666 0
DWIDTH 8 0
BBX 8 1 0 7
BITMAP
FF
ENDCHAR
STARTCHAR char73
ENCODING 18
SWIDTH 666 0
DWIDTH 8 0
BBX 8 1 0 4
BITMAP
FF
ENDCHAR
STARTCHAR char73
ENCODING 19
SWIDTH 666 0
DWIDTH 8 0
BBX 8 1 0 1
BITMAP
FF
ENDCHAR
STARTCHAR char73
ENCODING 20
SWIDTH 666 0
DWIDTH 8 0
BBX 8 1 0 -2
BITMAP
FF
ENDCHAR
STARTCHAR char73
ENCODING 21
SWIDTH 666 0
DWIDTH 8 0
BBX 5 12 3 -2
BITMAP
80
80
80
80
80
F8
80
80
80
80
80
80
ENDCHAR
STARTCHAR char73
ENCODING 22
SWIDTH 666 0
DWIDTH 8 0
BBX 4 12 0 -2
BITMAP
10
10
10
10
10
F0
10
10
10
10
10
10
ENDCHAR
STARTCHAR char73
ENCODING 23
SWIDTH 666 0
DWIDTH 8 0
BBX 8 6 0 4
BITMAP
10
10
10
10
10
FF
ENDCHAR
STARTCHAR char73
ENCODING 24
SWIDTH 666 0
DWIDTH 8 0
BBX 8 7 0 -2
BITMAP
FF
10
10
10
10
10
10
ENDCHAR
STARTCHAR char73
ENCODING 25
SWIDTH 666 0
DWIDTH 8 0
BBX 1 12 3 -2
BITMAP
80
80
80
80
80
80
80
80
80
80
80
80
ENDCHAR
STARTCHAR char32
ENCODING 32
SWIDTH 666 0
DWIDTH 8 0
BBX 0 0 0 0
BITMAP
ENDCHAR
STARTCHAR char33
ENCODING 33
SWIDTH 666 0
DWIDTH 8 0
BBX 2 9 3 0
BITMAP
C0
C0
C0
C0
C0
80
00
C0
C0
ENDCHAR
STARTCHAR char34
ENCODING 34
SWIDTH 666 0
DWIDTH 8 0
BBX 3 3 2 7
BITMAP
A0
A0
A0
ENDCHAR
STARTCHAR char35
ENCODING 35
SWIDTH 666 0
DWIDTH 8 0
BBX 6 9 1 0
BITMAP
48
48
FC
48
48
FC
48
48
48
ENDCHAR
STARTCHAR char36
ENCODING 36
SWIDTH 666 0
DWIDTH 8 0
BBX 5 11 1 -1
BITMAP
20
70
A8
A0
60
30
28
28
A8
70
20
ENDCHAR
STARTCHAR char37
ENCODING 37
SWIDTH 666 0
DWIDTH 8 0
BBX 7 9 0 0
BITMAP
60
92
94
68
10
2C
52
92
0C
ENDCHAR
STARTCHAR char38
ENCODING 38
SWIDTH 666 0
DWIDTH 8 0
BBX 6 9 1 0
BITMAP
30
48
48
30
64
94
88
88
74
ENDCHAR
STARTCHAR char39
ENCODING 39
SWIDTH 666 0
DWIDTH 8 0
BBX 3 3 2 7
BITMAP
20
40
80
ENDCHAR
STARTCHAR char40
ENCODING 40
SWIDTH 666 0
DWIDTH 8 0
BBX 4 11 2 -1
BITMAP
30
40
40
80
80
80
80
80
40
40
30
ENDCHAR
STARTCHAR char41
ENCODING 41
SWIDTH 666 0
DWIDTH 8 0
BBX 4 11 1 -1
BITMAP
C0
20
20
10
10
10
10
10
20
20
C0
ENDCHAR
STARTCHAR char42
ENCODING 42
SWIDTH 666 0
DWIDTH 8 0
BBX 5 5 1 4
BITMAP
20
A8
50
A8
20
ENDCHAR
STARTCHAR char43
ENCODING 43
SWIDTH 666 0
DWIDTH 8 0
BBX 5 5 1 2
BITMAP
20
20
F8
20
20
ENDCHAR
STARTCHAR char44
ENCODING 44
SWIDTH 666 0
DWIDTH 8 0
BBX 3 3 2 -1
BITMAP
60
60
C0
ENDCHAR
STARTCHAR char45
ENCODING 45
SWIDTH 666 0
DWIDTH 8 0
BBX 5 1 1 4
BITMAP
F8
ENDCHAR
STARTCHAR char46
ENCODING 46
SWIDTH 666 0
DWIDTH 8 0
BBX 2 2 2 0
BITMAP
C0
C0
ENDCHAR
STARTCHAR char47
ENCODING 47
SWIDTH 666 0
DWIDTH 8 0
BBX 5 11 1 -1
BITMAP
08
08
10
10
20
20
20
40
40
80
80
ENDCHAR
STARTCHAR char48
ENCODING 48
SWIDTH 666 0
DWIDTH 8 0
BBX 5 9 1 0
BITMAP
70
88
88
88
88
88
88
88
70
ENDCHAR
STARTCHAR char49
ENCODING 49
SWIDTH 666 0
DWIDTH 8 0
BBX 3 9 1 0
BITMAP
20
60
A0
20
20
20
20
20
20
ENDCHAR
STARTCHAR char50
ENCODING 50
SWIDTH 666 0
DWIDTH 8 0
BBX 5 9 1 0
BITMAP
70
88
08
08
10
20
40
80
F8
ENDCHAR
STARTCHAR char51
ENCODING 51
SWIDTH 666 0
DWIDTH 8 0
BBX 5 9 1 0
BITMAP
70
88
08
08
30
08
08
88
70
ENDCHAR
STARTCHAR char52
ENCODING 52
SWIDTH 666 0
DWIDTH 8 0
BBX 6 9 0 0
BITMAP
08
18
28
48
88
FC
08
08
08
ENDCHAR
STARTCHAR char53
ENCODING 53
SWIDTH 666 0
DWIDTH 8 0
BBX 5 9 1 0
BITMAP
F8
80
80
F0
08
08
08
88
70
ENDCHAR
STARTCHAR char54
ENCODING 54
SWIDTH 666 0
DWIDTH 8 0
BBX 5 9 1 0
BITMAP
70
88
80
80
F0
88
88
88
70
ENDCHAR
STARTCHAR char55
ENCODING 55
SWIDTH 666 0
DWIDTH 8 0
BBX 5 9 1 0
BITMAP
F8
08
08
10
20
20
40
40
40
ENDCHAR
STARTCHAR char56
ENCODING 56
SWIDTH 666 0
DWIDTH 8 0
BBX 5 9 1 0
BITMAP
70
88
88
88
70
88
88
88
70
ENDCHAR
STARTCHAR char57
ENCODING 57
SWIDTH 666 0
DWIDTH 8 0
BBX 5 9 1 0
BITMAP
70
88
88
88
78
08
08
88
70
ENDCHAR
STARTCHAR char58
ENCODING 58
SWIDTH 666 0
DWIDTH 8 0
BBX 2 7 2 0
BITMAP
C0
C0
00
00
00
C0
C0
ENDCHAR
STARTCHAR char59
ENCODING 59
SWIDTH 666 0
DWIDTH 8 0
BBX 3 8 1 -1
BITMAP
60
60
00
00
00
60
60
C0
ENDCHAR
STARTCHAR char60
ENCODING 60
SWIDTH 666 0
DWIDTH 8 0
BBX 4 7 2 1
BITMAP
10
20
40
80
40
20
10
ENDCHAR
STARTCHAR char61
ENCODING 61
SWIDTH 666 0
DWIDTH 8 0
BBX 5 3 1 3
BITMAP
F8
00
F8
ENDCHAR
STARTCHAR char62
ENCODING 62
SWIDTH 666 0
DWIDTH 8 0
BBX 4 7 2 1
BITMAP
80
40
20
10
20
40
80
ENDCHAR
STARTCHAR char63
ENCODING 63
SWIDTH 666 0
DWIDTH 8 0
BBX 5 9 1 0
BITMAP
F0
08
08
08
70
40
00
40
40
ENDCHAR
STARTCHAR char64
ENCODING 64
SWIDTH 666 0
DWIDTH 8 0
BBX 7 9 0 0
BITMAP
38
44
9C
A4
A4
AC
92
40
38
ENDCHAR
STARTCHAR char65
ENCODING 65
SWIDTH 666 0
DWIDTH 8 0
BBX 6 9 1 0
BITMAP
30
30
48
48
48
FC
84
84
84
ENDCHAR
STARTCHAR char66
ENCODING 66
SWIDTH 666 0
DWIDTH 8 0
BBX 5 9 1 0
BITMAP
F0
88
88
88
F0
88
88
88
F0
ENDCHAR
STARTCHAR char67
ENCODING 67
SWIDTH 666 0
DWIDTH 8 0
BBX 5 9 1 0
BITMAP
38
48
80
80
80
80
80
40
38
ENDCHAR
STARTCHAR char68
ENCODING 68
SWIDTH 666 0
DWIDTH 8 0
BBX 5 9 1 0
BITMAP
E0
90
88
88
88
88
88
90
E0
ENDCHAR
STARTCHAR char69
ENCODING 69
SWIDTH 666 0
DWIDTH 8 0
BBX 5 9 1 0
BITMAP
F8
80
80
80
F0
80
80
80
F8
ENDCHAR
STARTCHAR char70
ENCODING 70
SWIDTH 666 0
DWIDTH 8 0
BBX 4 9 2 0
BITMAP
F0
80
80
80
F0
80
80
80
80
ENDCHAR
STARTCHAR char71
ENCODING 71
SWIDTH 666 0
DWIDTH 8 0
BBX 5 9 1 0
BITMAP
38
48
80
80
80
88
88
48
38
ENDCHAR
STARTCHAR char72
ENCODING 72
SWIDTH 666 0
DWIDTH 8 0
BBX 5 9 1 0
BITMAP
88
88
88
88
F8
88
88
88
88
ENDCHAR
STARTCHAR char73
ENCODING 73
SWIDTH 666 0
DWIDTH 8 0
BBX 5 9 1 0
BITMAP
F8
20
20
20
20
20
20
20
F8
ENDCHAR
STARTCHAR char74
ENCODING 74
SWIDTH 666 0
DWIDTH 8 0
BBX 6 9 0 0
BITMAP
7C
10
10
10
10
10
10
10
E0
ENDCHAR
STARTCHAR char75
ENCODING 75
SWIDTH 666 0
DWIDTH 8 0
BBX 6 9 1 0
BITMAP
84
88
90
A0
E0
90
88
84
84
ENDCHAR
STARTCHAR char76
ENCODING 76
SWIDTH 666 0
DWIDTH 8 0
BBX 4 9 2 0
BITMAP
80
80
80
80
80
80
80
80
F0
ENDCHAR
STARTCHAR char77
ENCODING 77
SWIDTH 666 0
DWIDTH 8 0
BBX 6 9 1 0
BITMAP
84
CC
CC
B4
B4
84
84
84
84
ENDCHAR
STARTCHAR char78
ENCODING 78
SWIDTH 666 0
DWIDTH 8 0
BBX 5 9 1 0
BITMAP
88
C8
C8
A8
A8
98
98
88
88
ENDCHAR
STARTCHAR char79
ENCODING 79
SWIDTH 666 0
DWIDTH 8 0
BBX 6 9 1 0
BITMAP
30
48
84
84
84
84
84
48
30
ENDCHAR
STARTCHAR char80
ENCODING 80
SWIDTH 666 0
DWIDTH 8 0
BBX 5 9 1 0
BITMAP
F0
88
88
88
88
F0
80
80
80
ENDCHAR
STARTCHAR char81
ENCODING 81
SWIDTH 666 0
DWIDTH 8 0
BBX 6 11 1 -2
BITMAP
30
48
84
84
84
84
84
48
30
18
0C
ENDCHAR
STARTCHAR char82
ENCODING 82
SWIDTH 666 0
DWIDTH 8 0
BBX 5 9 1 0
BITMAP
F0
88
88
88
F0
90
88
88
88
ENDCHAR
STARTCHAR char83
ENCODING 83
SWIDTH 666 0
DWIDTH 8 0
BBX 5 9 1 0
BITMAP
78
80
80
C0
70
18
08
08
F0
ENDCHAR
STARTCHAR char84
ENCODING 84
SWIDTH 666 0
DWIDTH 8 0
BBX 7 9 0 0
BITMAP
FE
10
10
10
10
10
10
10
10
ENDCHAR
STARTCHAR char85
ENCODING 85
SWIDTH 666 0
DWIDTH 8 0
BBX 5 9 1 0
BITMAP
88
88
88
88
88
88
88
88
70
ENDCHAR
STARTCHAR char86
ENCODING 86
SWIDTH 666 0
DWIDTH 8 0
BBX 6 9 1 0
BITMAP
84
84
84
48
48
48
30
30
30
ENDCHAR
STARTCHAR char87
ENCODING 87
SWIDTH 666 0
DWIDTH 8 0
BBX 6 9 1 0
BITMAP
84
84
B4
B4
B4
48
48
48
48
ENDCHAR
STARTCHAR char88
ENCODING 88
SWIDTH 666 0
DWIDTH 8 0
BBX 5 9 1 0
BITMAP
88
88
50
50
20
50
50
88
88
ENDCHAR
STARTCHAR char89
ENCODING 89
SWIDTH 666 0
DWIDTH 8 0
BBX 5 9 1 0
BITMAP
88
88
88
50
50
20
20
20
20
ENDCHAR
STARTCHAR char90
ENCODING 90
SWIDTH 666 0
DWIDTH 8 0
BBX 5 9 1 0
BITMAP
F8
08
10
10
20
40
40
80
F8
ENDCHAR
STARTCHAR char91
ENCODING 91
SWIDTH 666 0
DWIDTH 8 0
BBX 3 11 3 -1
BITMAP
E0
80
80
80
80
80
80
80
80
80
E0
ENDCHAR
STARTCHAR char92
ENCODING 92
SWIDTH 666 0
DWIDTH 8 0
BBX 5 11 1 -1
BITMAP
80
80
40
40
20
20
20
10
10
08
08
ENDCHAR
STARTCHAR char93
ENCODING 93
SWIDTH 666 0
DWIDTH 8 0
BBX 3 11 1 -1
BITMAP
E0
20
20
20
20
20
20
20
20
20
E0
ENDCHAR
STARTCHAR char94
ENCODING 94
SWIDTH 666 0
DWIDTH 8 0
BBX 5 6 1 3
BITMAP
20
20
50
50
88
88
ENDCHAR
STARTCHAR char95
ENCODING 95
SWIDTH 666 0
DWIDTH 8 0
BBX 7 1 0 -1
BITMAP
FE
ENDCHAR
STARTCHAR char96
ENCODING 96
SWIDTH 666 0
DWIDTH 8 0
BBX 3 3 2 7
BITMAP
80
40
20
ENDCHAR
STARTCHAR char97
ENCODING 97
SWIDTH 666 0
DWIDTH 8 0
BBX 6 7 1 0
BITMAP
70
88
08
78
88
88
74
ENDCHAR
STARTCHAR char98
ENCODING 98
SWIDTH 666 0
DWIDTH 8 0
BBX 5 10 1 0
BITMAP
80
80
80
B0
C8
88
88
88
88
F0
ENDCHAR
STARTCHAR char99
ENCODING 99
SWIDTH 666 0
DWIDTH 8 0
BBX 5 7 1 0
BITMAP
38
40
80
80
80
40
38
ENDCHAR
STARTCHAR char100
ENCODING 100
SWIDTH 666 0
DWIDTH 8 0
BBX 5 10 1 0
BITMAP
08
08
08
78
88
88
88
88
98
68
ENDCHAR
STARTCHAR char101
ENCODING 101
SWIDTH 666 0
DWIDTH 8 0
BBX 5 7 1 0
BITMAP
70
88
88
F8
80
88
70
ENDCHAR
STARTCHAR char102
ENCODING 102
SWIDTH 666 0
DWIDTH 8 0
BBX 5 10 1 0
BITMAP
38
40
40
F8
40
40
40
40
40
40
ENDCHAR
STARTCHAR char103
ENCODING 103
SWIDTH 666 0
DWIDTH 8 0
BBX 5 9 1 -2
BITMAP
78
88
88
88
98
68
08
08
70
ENDCHAR
STARTCHAR char104
ENCODING 104
SWIDTH 666 0
DWIDTH 8 0
BBX 5 10 1 0
BITMAP
80
80
80
B0
C8
88
88
88
88
88
ENDCHAR
STARTCHAR char105
ENCODING 105
SWIDTH 666 0
DWIDTH 8 0
BBX 3 10 1 0
BITMAP
20
20
00
E0
20
20
20
20
20
20
ENDCHAR
STARTCHAR char106
ENCODING 106
SWIDTH 666 0
DWIDTH 8 0
BBX 4 12 1 -2
BITMAP
10
10
00
F0
10
10
10
10
10
10
10
E0
ENDCHAR
STARTCHAR char107
ENCODING 107
SWIDTH 666 0
DWIDTH 8 0
BBX 6 10 1 0
BITMAP
80
80
80
88
90
A0
E0
90
88
84
ENDCHAR
STARTCHAR char108
ENCODING 108
SWIDTH 666 0
DWIDTH 8 0
BBX 3 10 1 0
BITMAP
E0
20
20
20
20
20
20
20
20
20
ENDCHAR
STARTCHAR char109
ENCODING 109
SWIDTH 666 0
DWIDTH 8 0
BBX 5 7 1 0
BITMAP
D0
A8
A8
A8
A8
A8
A8
ENDCHAR
STARTCHAR char110
ENCODING 110
SWIDTH 666 0
DWIDTH 8 0
BBX 5 7 1 0
BITMAP
B0
C8
88
88
88
88
88
ENDCHAR
STARTCHAR char111
ENCODING 111
SWIDTH 666 0
DWIDTH 8 0
BBX 5 7 1 0
BITMAP
70
88
88
88
88
88
70
ENDCHAR
STARTCHAR char112
ENCODING 112
SWIDTH 666 0
DWIDTH 8 0
BBX 5 9 1 -2
BITMAP
B0
C8
88
88
88
88
F0
80
80
ENDCHAR
STARTCHAR char113
ENCODING 113
SWIDTH 666 0
DWIDTH 8 0
BBX 5 9 1 -2
BITMAP
78
88
88
88
88
98
68
08
08
ENDCHAR
STARTCHAR char114
ENCODING 114
SWIDTH 666 0
DWIDTH 8 0
BBX 4 7 2 0
BITMAP
B0
C0
80
80
80
80
80
ENDCHAR
STARTCHAR char115
ENCODING 115
SWIDTH 666 0
DWIDTH 8 0
BBX 5 7 1 0
BITMAP
78
80
80
70
08
08
F0
ENDCHAR
STARTCHAR char116
ENCODING 116
SWIDTH 666 0
DWIDTH 8 0
BBX 5 9 1 0
BITMAP
40
40
F8
40
40
40
40
40
38
ENDCHAR
STARTCHAR char117
ENCODING 117
SWIDTH 666 0
DWIDTH 8 0
BBX 5 7 1 0
BITMAP
88
88
88
88
88
98
68
ENDCHAR
STARTCHAR char118
ENCODING 118
SWIDTH 666 0
DWIDTH 8 0
BBX 5 7 1 0
BITMAP
88
88
88
50
50
20
20
ENDCHAR
STARTCHAR char119
ENCODING 119
SWIDTH 666 0
DWIDTH 8 0
BBX 5 7 1 0
BITMAP
88
A8
A8
A8
50
50
50
ENDCHAR
STARTCHAR char120
ENCODING 120
SWIDTH 666 0
DWIDTH 8 0
BBX 5 7 1 0
BITMAP
88
88
50
20
50
88
88
ENDCHAR
STARTCHAR char121
ENCODING 121
SWIDTH 666 0
DWIDTH 8 0
BBX 5 9 1 -2
BITMAP
88
88
88
50
50
20
20
40
C0
ENDCHAR
STARTCHAR char122
ENCODING 122
SWIDTH 666 0
DWIDTH 8 0
BBX 5 7 1 0
BITMAP
F8
08
10
20
40
80
F8
ENDCHAR
STARTCHAR char123
ENCODING 123
SWIDTH 666 0
DWIDTH 8 0
BBX 4 11 2 -1
BITMAP
30
40
40
40
20
C0
20
40
40
40
30
ENDCHAR
STARTCHAR char124
ENCODING 124
SWIDTH 666 0
DWIDTH 8 0
BBX 1 11 3 -1
BITMAP
80
80
80
80
80
80
80
80
80
80
80
ENDCHAR
STARTCHAR char125
ENCODING 125
SWIDTH 666 0
DWIDTH 8 0
BBX 4 11 1 -1
BITMAP
C0
20
20
20
40
30
40
20
20
20
C0
ENDCHAR
STARTCHAR char126
ENCODING 126
SWIDTH 666 0
DWIDTH 8 0
BBX 7 2 0 4
BITMAP
72
9C
ENDCHAR
STARTCHAR char161
ENCODING 161
SWIDTH 666 0
DWIDTH 8 0
BBX 2 9 3 -2
BITMAP
C0
C0
00
80
C0
C0
C0
C0
C0
ENDCHAR
STARTCHAR char162
ENCODING 162
SWIDTH 666 0
DWIDTH 8 0
BBX 6 9 1 0
BITMAP
10
3C
50
90
90
90
50
3C
10
ENDCHAR
STARTCHAR char163
ENCODING 163
SWIDTH 666 0
DWIDTH 8 0
BBX 5 9 1 0
BITMAP
38
40
40
40
F0
40
40
40
F8
ENDCHAR
STARTCHAR char164
ENCODING 164
SWIDTH 666 0
DWIDTH 8 0
BBX 7 7 0 1
BITMAP
82
7C
44
44
44
7C
82
ENDCHAR
STARTCHAR char165
ENCODING 165
SWIDTH 666 0
DWIDTH 8 0
BBX 5 9 1 0
BITMAP
88
88
88
50
F8
20
F8
20
20
ENDCHAR
STARTCHAR char166
ENCODING 166
SWIDTH 666 0
DWIDTH 8 0
BBX 1 11 3 -1
BITMAP
80
80
80
80
00
00
80
80
80
80
80
ENDCHAR
STARTCHAR char167
ENCODING 167
SWIDTH 666 0
DWIDTH 8 0
BBX 5 10 1 -1
BITMAP
30
48
40
A0
90
48
28
10
90
60
ENDCHAR
STARTCHAR char168
ENCODING 168
SWIDTH 666 0
DWIDTH 8 0
BBX 3 2 2 8
BITMAP
A0
A0
ENDCHAR
STARTCHAR char169
ENCODING 169
SWIDTH 666 0
DWIDTH 8 0
BBX 7 9 0 0
BITMAP
38
44
9A
A2
A2
A2
9A
44
38
ENDCHAR
STARTCHAR char170
ENCODING 170
SWIDTH 666 0
DWIDTH 8 0
BBX 5 6 1 3
BITMAP
60
10
10
70
90
68
ENDCHAR
STARTCHAR char171
ENCODING 171
SWIDTH 666 0
DWIDTH 8 0
BBX 6 5 0 1
BITMAP
24
48
90
48
24
ENDCHAR
STARTCHAR char172
ENCODING 172
SWIDTH 666 0
DWIDTH 8 0
BBX 6 4 0 2
BITMAP
FC
04
04
04
ENDCHAR
STARTCHAR char173
ENCODING 173
SWIDTH 666 0
DWIDTH 8 0
BBX 3 1 2 4
BITMAP
E0
ENDCHAR
STARTCHAR char174
ENCODING 174
SWIDTH 666 0
DWIDTH 8 0
BBX 7 7 0 2
BITMAP
38
44
BA
B2
AA
44
38
ENDCHAR
STARTCHAR char175
ENCODING 175
SWIDTH 666 0
DWIDTH 8 0
BBX 4 1 2 9
BITMAP
F0
ENDCHAR
STARTCHAR char176
ENCODING 176
SWIDTH 666 0
DWIDTH 8 0
BBX 4 3 1 6
BITMAP
60
90
60
ENDCHAR
STARTCHAR char177
ENCODING 177
SWIDTH 666 0
DWIDTH 8 0
BBX 5 7 1 1
BITMAP
20
20
F8
20
20
00
F8
ENDCHAR
STARTCHAR char178
ENCODING 178
SWIDTH 666 0
DWIDTH 8 0
BBX 4 6 2 3
BITMAP
E0
10
10
60
80
F0
ENDCHAR
STARTCHAR char179
ENCODING 179
SWIDTH 666 0
DWIDTH 8 0
BBX 4 6 2 3
BITMAP
E0
10
60
10
10
E0
ENDCHAR
STARTCHAR char180
ENCODING 180
SWIDTH 666 0
DWIDTH 8 0
BBX 2 2 3 8
BITMAP
40
80
ENDCHAR
STARTCHAR char181
ENCODING 181
SWIDTH 666 0
DWIDTH 8 0
BBX 5 9 1 -2
BITMAP
88
88
88
88
88
D8
A8
80
80
ENDCHAR
STARTCHAR char182
ENCODING 182
SWIDTH 666 0
DWIDTH 8 0
BBX 5 10 1 -1
BITMAP
78
E8
E8
E8
68
28
28
28
28
28
ENDCHAR
STARTCHAR char183
ENCODING 183
SWIDTH 666 0
DWIDTH 8 0
BBX 3 3 2 3
BITMAP
E0
E0
E0
ENDCHAR
STARTCHAR char184
ENCODING 184
SWIDTH 666 0
DWIDTH 8 0
BBX 3 2 2 -2
BITMAP
20
C0
ENDCHAR
STARTCHAR char185
ENCODING 185
SWIDTH 666 0
DWIDTH 8 0
BBX 3 6 1 3
BITMAP
20
E0
20
20
20
20
ENDCHAR
STARTCHAR char186
ENCODING 186
SWIDTH 666 0
DWIDTH 8 0
BBX 5 6 1 3
BITMAP
70
88
88
88
88
70
ENDCHAR
STARTCHAR char187
ENCODING 187
SWIDTH 666 0
DWIDTH 8 0
BBX 6 5 1 1
BITMAP
90
48
24
48
90
ENDCHAR
STARTCHAR char188
ENCODING 188
SWIDTH 666 0
DWIDTH 8 0
BBX 7 9 0 0
BITMAP
C8
48
50
50
24
2C
54
9E
84
ENDCHAR
STARTCHAR char189
ENCODING 189
SWIDTH 666 0
DWIDTH 8 0
BBX 7 9 0 0
BITMAP
C8
48
50
50
2C
22
44
88
8E
ENDCHAR
STARTCHAR char190
ENCODING 190
SWIDTH 666 0
DWIDTH 8 0
BBX 7 9 0 0
BITMAP
C4
24
C8
30
D4
2C
54
9E
84
ENDCHAR
STARTCHAR char191
ENCODING 191
SWIDTH 666 0
DWIDTH 8 0
BBX 5 9 1 -2
BITMAP
10
10
00
10
70
80
80
80
78
ENDCHAR
STARTCHAR char238
ENCODING 192
SWIDTH 666 0
DWIDTH 8 0
BBX 6 7 1 0
BITMAP
98
A4
A4
E4
A4
A4
98
ENDCHAR
STARTCHAR char208
ENCODING 193
SWIDTH 666 0
DWIDTH 8 0
BBX 6 7 1 0
BITMAP
70
88
08
78
88
88
74
ENDCHAR
STARTCHAR char209
ENCODING 194
SWIDTH 666 0
DWIDTH 8 0
BBX 5 9 1 0
BITMAP
68
90
80
60
90
88
88
88
70
ENDCHAR
STARTCHAR char230
ENCODING 195
SWIDTH 666 0
DWIDTH 8 0
BBX 6 8 1 -1
BITMAP
88
88
88
88
88
98
64
04
ENDCHAR
STARTCHAR char212
ENCODING 196
SWIDTH 666 0
DWIDTH 8 0
BBX 5 9 1 0
BITMAP
70
88
08
68
98
88
88
88
70
ENDCHAR
STARTCHAR char213
ENCODING 197
SWIDTH 666 0
DWIDTH 8 0
BBX 5 7 1 0
BITMAP
70
88
88
F8
80
88
70
ENDCHAR
STARTCHAR char228
ENCODING 198
SWIDTH 666 0
DWIDTH 8 0
BBX 7 11 1 -2
BITMAP
10
10
7C
92
92
92
92
92
7C
10
10
ENDCHAR
STARTCHAR char211
ENCODING 199
SWIDTH 666 0
DWIDTH 8 0
BBX 5 7 1 0
BITMAP
F8
80
80
80
80
80
80
ENDCHAR
STARTCHAR char229
ENCODING 200
SWIDTH 666 0
DWIDTH 8 0
BBX 5 7 1 0
BITMAP
88
88
50
20
50
88
88
ENDCHAR
STARTCHAR char216
ENCODING 201
SWIDTH 666 0
DWIDTH 8 0
BBX 5 7 1 0
BITMAP
88
88
88
88
88
98
68
ENDCHAR
STARTCHAR char217
ENCODING 202
SWIDTH 666 0
DWIDTH 8 0
BBX 5 9 1 0
BITMAP
20
20
88
88
88
88
88
98
68
ENDCHAR
STARTCHAR char218
ENCODING 203
SWIDTH 666 0
DWIDTH 8 0
BBX 6 8 1 0
BITMAP
80
88
90
A0
E0
90
88
84
ENDCHAR
STARTCHAR char219
ENCODING 204
SWIDTH 666 0
DWIDTH 8 0
BBX 5 7 1 0
BITMAP
38
48
48
48
48
48
88
ENDCHAR
STARTCHAR char220
ENCODING 205
SWIDTH 666 0
DWIDTH 8 0
BBX 5 7 1 0
BITMAP
88
D8
D8
A8
A8
88
88
ENDCHAR
STARTCHAR char221
ENCODING 206
SWIDTH 666 0
DWIDTH 8 0
BBX 5 7 1 0
BITMAP
88
88
88
F8
88
88
88
ENDCHAR
STARTCHAR char222
ENCODING 207
SWIDTH 666 0
DWIDTH 8 0
BBX 5 7 1 0
BITMAP
70
88
88
88
88
88
70
ENDCHAR
STARTCHAR char223
ENCODING 208
SWIDTH 666 0
DWIDTH 8 0
BBX 5 7 1 0
BITMAP
B0
C8
88
88
88
88
88
ENDCHAR
STARTCHAR char239
ENCODING 209
SWIDTH 666 0
DWIDTH 8 0
BBX 5 7 1 0
BITMAP
78
88
88
98
68
28
C8
ENDCHAR
STARTCHAR char224
ENCODING 210
SWIDTH 666 0
DWIDTH 8 0
BBX 5 9 1 -2
BITMAP
B0
C8
88
88
88
88
F0
80
80
ENDCHAR
STARTCHAR char225
ENCODING 211
SWIDTH 666 0
DWIDTH 8 0
BBX 5 7 1 0
BITMAP
38
40
80
80
80
40
38
ENDCHAR
STARTCHAR char226
ENCODING 212
SWIDTH 666 0
DWIDTH 8 0
BBX 5 7 1 0
BITMAP
F8
20
20
20
20
20
20
ENDCHAR
STARTCHAR char227
ENCODING 213
SWIDTH 666 0
DWIDTH 8 0
BBX 5 9 1 -2
BITMAP
88
88
88
50
50
20
20
40
C0
ENDCHAR
STARTCHAR char214
ENCODING 214
SWIDTH 666 0
DWIDTH 8 0
BBX 5 7 1 0
BITMAP
A8
A8
70
70
A8
A8
A8
ENDCHAR
STARTCHAR char210
ENCODING 215
SWIDTH 666 0
DWIDTH 8 0
BBX 5 9 1 0
BITMAP
60
90
90
A0
D0
88
88
88
F0
ENDCHAR
STARTCHAR char236
ENCODING 216
SWIDTH 666 0
DWIDTH 8 0
BBX 5 7 0 0
BITMAP
80
80
F0
88
88
88
F0
ENDCHAR
STARTCHAR char235
ENCODING 217
SWIDTH 666 0
DWIDTH 8 0
BBX 7 7 0 0
BITMAP
84
84
E4
94
8C
94
62
ENDCHAR
STARTCHAR char215
ENCODING 218
SWIDTH 666 0
DWIDTH 8 0
BBX 5 7 1 0
BITMAP
F0
08
08
70
08
08
F0
ENDCHAR
STARTCHAR char232
ENCODING 219
SWIDTH 666 0
DWIDTH 8 0
BBX 6 7 1 0
BITMAP
A8
A8
A8
A8
A8
A8
54
ENDCHAR
STARTCHAR char237
ENCODING 220
SWIDTH 666 0
DWIDTH 8 0
BBX 5 7 1 0
BITMAP
E0
10
08
78
08
10
E0
ENDCHAR
STARTCHAR char233
ENCODING 221
SWIDTH 666 0
DWIDTH 8 0
BBX 6 8 1 -1
BITMAP
A8
A8
A8
A8
A8
A8
54
04
ENDCHAR
STARTCHAR char231
ENCODING 222
SWIDTH 666 0
DWIDTH 8 0
BBX 5 7 1 0
BITMAP
88
88
88
98
68
08
08
ENDCHAR
STARTCHAR char234
ENCODING 223
SWIDTH 666 0
DWIDTH 8 0
BBX 6 7 2 0
BITMAP
C0
40
78
44
44
44
78
ENDCHAR
STARTCHAR char206
ENCODING 224
SWIDTH 666 0
DWIDTH 8 0
BBX 6 9 1 0
BITMAP
98
A4
A4
A4
E4
A4
A4
A4
98
ENDCHAR
STARTCHAR char176
ENCODING 225
SWIDTH 666 0
DWIDTH 8 0
BBX 6 9 1 0
BITMAP
30
30
48
48
48
FC
84
84
84
ENDCHAR
STARTCHAR char177
ENCODING 226
SWIDTH 666 0
DWIDTH 8 0
BBX 5 9 1 0
BITMAP
F8
80
80
F0
88
88
88
88
F0
ENDCHAR
STARTCHAR char198
ENCODING 227
SWIDTH 666 0
DWIDTH 8 0
BBX 6 10 1 -1
BITMAP
88
88
88
88
88
88
88
88
FC
04
ENDCHAR
STARTCHAR char180
ENCODING 228
SWIDTH 666 0
DWIDTH 8 0
BBX 6 10 1 -1
BITMAP
38
48
48
48
48
48
48
48
FC
84
ENDCHAR
STARTCHAR char181
ENCODING 229
SWIDTH 666 0
DWIDTH 8 0
BBX 5 9 1 0
BITMAP
F8
80
80
80
F0
80
80
80
F8
ENDCHAR
STARTCHAR char196
ENCODING 230
SWIDTH 666 0
DWIDTH 8 0
BBX 7 9 1 0
BITMAP
7C
92
92
92
92
92
7C
10
10
ENDCHAR
STARTCHAR char179
ENCODING 231
SWIDTH 666 0
DWIDTH 8 0
BBX 5 9 2 0
BITMAP
F8
80
80
80
80
80
80
80
80
ENDCHAR
STARTCHAR char197
ENCODING 232
SWIDTH 666 0
DWIDTH 8 0
BBX 5 9 1 0
BITMAP
88
88
50
50
20
50
50
88
88
ENDCHAR
STARTCHAR char184
ENCODING 233
SWIDTH 666 0
DWIDTH 8 0
BBX 5 9 1 0
BITMAP
88
88
98
A8
A8
C8
88
88
88
ENDCHAR
STARTCHAR char185
ENCODING 234
SWIDTH 666 0
DWIDTH 8 0
BBX 5 9 1 0
BITMAP
A8
88
98
A8
A8
C8
88
88
88
ENDCHAR
STARTCHAR char186
ENCODING 235
SWIDTH 666 0
DWIDTH 8 0
BBX 6 9 1 0
BITMAP
84
88
90
A0
E0
90
88
84
84
ENDCHAR
STARTCHAR char176
ENCODING 236
SWIDTH 666 0
DWIDTH 8 0
BBX 6 9 1 0
BITMAP
30
30
48
48
48
84
84
84
84
ENDCHAR
STARTCHAR char188
ENCODING 237
SWIDTH 666 0
DWIDTH 8 0
BBX 5 9 1 0
BITMAP
88
D8
D8
A8
A8
A8
88
88
88
ENDCHAR
STARTCHAR char189
ENCODING 238
SWIDTH 666 0
DWIDTH 8 0
BBX 5 9 1 0
BITMAP
88
88
88
88
F8
88
88
88
88
ENDCHAR
STARTCHAR char190
ENCODING 239
SWIDTH 666 0
DWIDTH 8 0
BBX 6 9 1 0
BITMAP
30
48
84
84
84
84
84
48
30
ENDCHAR
STARTCHAR char191
ENCODING 240
SWIDTH 666 0
DWIDTH 8 0
BBX 5 9 1 0
BITMAP
F8
88
88
88
88
88
88
88
88
ENDCHAR
STARTCHAR char207
ENCODING 241
SWIDTH 666 0
DWIDTH 8 0
BBX 5 9 1 0
BITMAP
78
88
88
88
88
78
28
48
88
ENDCHAR
STARTCHAR char192
ENCODING 242
SWIDTH 666 0
DWIDTH 8 0
BBX 5 9 1 0
BITMAP
F0
88
88
88
88
F0
80
80
80
ENDCHAR
STARTCHAR char193
ENCODING 243
SWIDTH 666 0
DWIDTH 8 0
BBX 5 9 1 0
BITMAP
38
48
80
80
80
80
80
40
38
ENDCHAR
STARTCHAR char194
ENCODING 244
SWIDTH 666 0
DWIDTH 8 0
BBX 7 9 0 0
BITMAP
FE
10
10
10
10
10
10
10
10
ENDCHAR
STARTCHAR char195
ENCODING 245
SWIDTH 666 0
DWIDTH 8 0
BBX 5 9 1 0
BITMAP
88
88
88
88
88
78
08
88
70
ENDCHAR
STARTCHAR char182
ENCODING 246
SWIDTH 666 0
DWIDTH 8 0
BBX 7 9 1 0
BITMAP
92
92
54
54
38
54
54
92
92
ENDCHAR
STARTCHAR char178
ENCODING 247
SWIDTH 666 0
DWIDTH 8 0
BBX 5 9 1 0
BITMAP
F0
88
88
88
F0
88
88
88
F0
ENDCHAR
STARTCHAR char204
ENCODING 248
SWIDTH 666 0
DWIDTH 8 0
BBX 5 9 1 0
BITMAP
80
80
80
F0
88
88
88
88
F0
ENDCHAR
STARTCHAR char203
ENCODING 249
SWIDTH 666 0
DWIDTH 8 0
BBX 6 9 1 0
BITMAP
84
84
84
E4
94
8C
8C
94
E4
ENDCHAR
STARTCHAR char183
ENCODING 250
SWIDTH 666 0
DWIDTH 8 0
BBX 6 9 1 0
BITMAP
30
48
84
08
30
08
84
48
30
ENDCHAR
STARTCHAR char200
ENCODING 251
SWIDTH 666 0
DWIDTH 8 0
BBX 5 9 1 0
BITMAP
A8
A8
A8
A8
A8
A8
A8
A8
F8
ENDCHAR
STARTCHAR char205
ENCODING 252
SWIDTH 666 0
DWIDTH 8 0
BBX 5 9 1 0
BITMAP
E0
90
08
08
38
08
08
90
E0
ENDCHAR
STARTCHAR char201
ENCODING 253
SWIDTH 666 0
DWIDTH 8 0
BBX 6 10 1 -1
BITMAP
A8
A8
A8
A8
A8
A8
A8
A8
FC
04
ENDCHAR
STARTCHAR char199
ENCODING 254
SWIDTH 666 0
DWIDTH 8 0
BBX 5 9 1 0
BITMAP
88
88
88
88
88
78
08
08
08
ENDCHAR
STARTCHAR char202
ENCODING 255
SWIDTH 666 0
DWIDTH 8 0
BBX 6 9 1 0
BITMAP
C0
40
40
78
44
44
44
44
78
ENDCHAR
ENDFONT
